<?xml version="1.0" encoding="UTF-8" standalone="no"?>
<svg width="30px" height="30px" viewBox="0 0 30 30" version="1.1" xmlns="http://www.w3.org/2000/svg" xmlns:xlink="http://www.w3.org/1999/xlink">
    <!-- Generator: Sketch 48.2 (47327) - http://www.bohemiancoding.com/sketch -->
    <title>icn-big-warning</title>
    <desc>Created with Sketch.</desc>
    <defs></defs>
    <g id="Symbols" stroke="none" stroke-width="1" fill="none" fill-rule="evenodd">
        <g id="icn-big-warning">
            <g>
                <rect id="contain-box" x="0" y="0" width="30" height="30"></rect>
                <path d="M14.0022461,20.9725645 L14.0022461,21.0267618 C14.0022461,21.5659358 14.4502713,22 15.0023024,22 C15.5543335,22 16.0023587,21.5659358 16.0023587,21.0267618 L16.0023587,20.9725645 C16.0023587,20.435337 15.5543335,19.9993263 15.0023024,19.9993263 C14.4502713,19.9993263 14.0022461,20.435337 14.0022461,20.9725645 Z M14.0022461,11.8723229 L14.0022461,18.1694253 C14.0022461,18.5612791 14.4502713,18.9982483 15.0023024,18.9982483 C15.5543335,18.9982483 16.0023587,18.5612791 16.0023587,18.1694253 L16.0023587,11.8723229 C16.0023587,11.4818837 15.5543335,10.9832479 15.0023024,10.9832479 C14.4502713,10.9832479 14.0022461,11.4818837 14.0022461,11.8723229 Z M23.7454224,23.9910889 L6.20446777,23.9910889 C5.81774095,23.9910889 5.47617929,23.7767467 5.28987294,23.4155128 C5.10356658,23.05278 5.1176807,22.6300913 5.32656965,22.2838463 L14.1161978,7.47271729 C14.5085703,6.82519422 15.4824444,6.82519422 15.8748169,7.47271729 L24.6233205,22.2838463 C24.8322094,22.6300913 24.8463236,23.05278 24.6586058,23.4155128 C24.4737108,23.7767467 24.1307378,23.9910889 23.7454224,23.9910889 Z M17.1535465,5.71183991 C16.6813673,4.94164923 15.8767504,4.48291016 15.0000563,4.48291016 C14.1233622,4.48291016 13.3187453,4.94164923 12.8465661,5.71183991 L3.34827737,21.8909576 C2.83491119,22.7255865 2.80255,23.7427905 3.25854861,24.6111729 C3.71454723,25.4826237 4.55299629,25.999664 5.50176761,25.999664 L24.4358168,25.999664 C25.3845881,25.999664 26.2230372,25.4826237 26.6790358,24.6127071 C27.1350344,23.7427905 27.1012022,22.7255865 26.5878361,21.8909576 L17.1535465,5.71183991 Z" id="Shape" fill="#FFFFFF" fill-rule="nonzero"></path>
            </g>
        </g>
    </g>
</svg>