<svg width="18" height="18" xmlns="http://www.w3.org/2000/svg" xmlns:xlink="http://www.w3.org/1999/xlink"><defs><path d="M14.003 5.452L10.435 9.02a1 1 0 0 1-1.415 0l-.04-.04a1 1 0 0 1 0-1.415l3.567-3.567H11a.999.999 0 1 1 0-1.998H15a1 1 0 0 1 1 1v4.002a.999.999 0 0 1-1.997 0v-1.55zM14 14v-3.008a1 1 0 0 1 2 0v3.003A2.004 2.004 0 0 1 13.995 16H3.999A1.999 1.999 0 0 1 2 14.002V4a2 2 0 0 1 2-2h3a1 1 0 1 1 0 2H4v10h10z" id="a"/></defs><g fill="none" fill-rule="evenodd"><path opacity=".601" d="M0 0h16v16H0z"/><use fill="#7094A7" xlink:href="#a"/></g></svg>