<?xml version="1.0" encoding="UTF-8" standalone="no"?>
<svg width="18px" height="18px" viewBox="0 0 18 18" version="1.1" xmlns="http://www.w3.org/2000/svg" xmlns:xlink="http://www.w3.org/1999/xlink">
    <!-- Generator: Sketch 48.2 (47327) - http://www.bohemiancoding.com/sketch -->
    <title>icn / site-select / view-select / list / dark</title>
    <desc>Created with Sketch.</desc>
    <defs></defs>
    <g id="Symbols" stroke="none" stroke-width="1" fill="none" fill-rule="evenodd">
        <g id="icn-/-site-select-/-view-select-/-list-/-dark" fill="#3B7694" fill-rule="nonzero">
            <path d="M3,2 L5,2 C5.55228475,2 6,2.44771525 6,3 L6,5 C6,5.55228475 5.55228475,6 5,6 L3,6 C2.44771525,6 2,5.55228475 2,5 L2,3 C2,2.44771525 2.44771525,2 3,2 Z M3,11 L5,11 C5.55228475,11 6,10.5522847 6,10 L6,8 C6,7.44771525 5.55228475,7 5,7 L3,7 C2.44771525,7 2,7.44771525 2,8 L2,10 C2,10.5522847 2.44771525,11 3,11 Z M8,10 L15,10 C15.5522847,10 16,9.55228475 16,9 L16,9 C16,8.44771525 15.5522847,8 15,8 L8,8 C7.44771525,8 7,8.44771525 7,9 L7,9 C7,9.55228475 7.44771525,10 8,10 Z M7,4 L7,4 C7,4.55228475 7.44771525,5 8,5 L15,5 C15.5522847,5 16,4.55228475 16,4 L16,4 C16,3.44771525 15.5522847,3 15,3 L8,3 C7.44771525,3 7,3.44771525 7,4 Z M8,15 L14.9815674,15 C15.5338521,15 15.9815674,14.5522847 15.9815674,14 L15.9815674,14 C15.9815674,13.4477153 15.5338521,13 14.9815674,13 L8,13 C7.44771525,13 7,13.4477153 7,14 L7,14 C7,14.5522847 7.44771525,15 8,15 Z M3,16 L5,16 C5.55228475,16 6,15.5522847 6,15 L6,13 C6,12.4477153 5.55228475,12 5,12 L3,12 C2.44771525,12 2,12.4477153 2,13 L2,15 C2,15.5522847 2.44771525,16 3,16 Z" id="Shape"></path>
        </g>
    </g>
</svg>