<?xml version="1.0" encoding="UTF-8" standalone="no"?>
<svg width="195px" height="195px" viewBox="0 0 195 195" version="1.1" xmlns="http://www.w3.org/2000/svg" xmlns:xlink="http://www.w3.org/1999/xlink">
    <!-- Generator: Sketch 49 (51002) - http://www.bohemiancoding.com/sketch -->
    <title>Loader</title>
    <desc>Created with Sketch.</desc>
    <defs></defs>
    <g id="Symbols" stroke="none" stroke-width="1" fill="none" fill-rule="evenodd">
        <g id="Dashboard-/-Site-Selection-/-Cards-/-Publishing" transform="translate(-109.000000, -42.000000)">
            <g id="publication" transform="translate(81.000000, 42.000000)">
                <g id="Loader" transform="translate(28.000000, 0.000000)">
                    <g id="Load">
                        <path d="M97.5,195 C43.6522369,195 0,151.347763 0,97.5 C0,43.6522369 43.6522369,0 97.5,0 C151.347763,0 195,43.6522369 195,97.5 C195,151.347763 151.347763,195 97.5,195 Z M97.5,191.608696 C149.474797,191.608696 191.608696,149.474797 191.608696,97.5 C191.608696,45.5252026 149.474797,3.39130435 97.5,3.39130435 C45.5252026,3.39130435 3.39130435,45.5252026 3.39130435,97.5 C3.39130435,149.474797 45.5252026,191.608696 97.5,191.608696 Z" id="Ring-4" fill="#FFFFFF" opacity="0.03"></path>
                        <path d="M97.5,182.282609 C50.6758582,182.282609 12.7173913,144.324142 12.7173913,97.5 C12.7173913,50.6758582 50.6758582,12.7173913 97.5,12.7173913 C144.324142,12.7173913 182.282609,50.6758582 182.282609,97.5 C182.282609,144.324142 144.324142,182.282609 97.5,182.282609 Z M97.5,178.891304 C142.451176,178.891304 178.891304,142.451176 178.891304,97.5 C178.891304,52.5488238 142.451176,16.1086957 97.5,16.1086957 C52.5488238,16.1086957 16.1086957,52.5488238 16.1086957,97.5 C16.1086957,142.451176 52.5488238,178.891304 97.5,178.891304 Z" id="Ring-3" fill="#FFFFFF" opacity="0.03"></path>
                        <g id="Ring-2" transform="translate(24.434783, 24.434783)">
                            <circle id="Ring-2-fill-opacity" fill="#FFFFFF" opacity="0.0317708333" cx="73.0652174" cy="73.0652174" r="68.673913"></circle>
                            <circle stroke="#FFFFFF" stroke-width="3" cx="72.5652174" cy="72.5652174" r="70.5"></circle>
                        </g>
                        <path d="M97.5,116.152174 C87.1986888,116.152174 78.8478261,107.801311 78.8478261,97.5 C78.8478261,87.1986888 87.1986888,78.8478261 97.5,78.8478261 C107.801311,78.8478261 116.152174,87.1986888 116.152174,97.5 C116.152174,107.801311 107.801311,116.152174 97.5,116.152174 Z M97.5,112.76087 C105.928346,112.76087 112.76087,105.928346 112.76087,97.5 C112.76087,89.0716545 105.928346,82.2391304 97.5,82.2391304 C89.0716545,82.2391304 82.2391304,89.0716545 82.2391304,97.5 C82.2391304,105.928346 89.0716545,112.76087 97.5,112.76087 Z" id="Color-ring" fill="#338FFF"></path>
                        <ellipse id="ball" fill="#FFFFFF" opacity="0.03" cx="97.498463" cy="97.5" rx="2.54255604" ry="2.54347826"></ellipse>
                    </g>
                </g>
            </g>
        </g>
    </g>
</svg>