<svg width="18" height="18" xmlns="http://www.w3.org/2000/svg" xmlns:xlink="http://www.w3.org/1999/xlink"><defs><path d="M12.782 5.046c0 .538-.436.887-.974.887a.974.974 0 0 1-.593-.201C10.44 5.138 9.76 4.93 9.17 4.93c-1.14 0-2.15.272-2.15 1.442S8.33 7.717 9.563 8.107C11.058 8.58 13 9.005 13 11.452c0 1.892-1.247 3.174-3.13 3.506v.765C9.87 16.58 9.695 17 9.06 17h-.084c-.678 0-.833-.39-.833-1.277v-.726C6.192 14.753 5 13.753 5 12.71a.924.924 0 0 1 1.512-.713c.853.704 1.683 1.056 2.488 1.056 1.034 0 2.215-.543 2.215-1.494 0-1.134-1.5-1.346-2.679-1.658-1.414-.36-3.302-.984-3.302-3.46C5.234 4.637 6.41 3.38 8.142 3v-.723c0-.858.197-1.277.841-1.277h.1c.662 0 .787.39.787 1.277V3c1.8.234 2.912 1.081 2.912 2.046z" id="a"/></defs><use fill="#7094A7" fill-rule="nonzero" xlink:href="#a"/></svg>