<svg width="36" height="36" xmlns="http://www.w3.org/2000/svg" xmlns:xlink="http://www.w3.org/1999/xlink"><defs><path d="M9 1c-.438-.026-2.43.027-3 0-1.287.027-2.282.836-3 1-.595 1.035-.778 1.934-1 3v2H0v3h2v8h4v-8h3V7H6V5c-.271-.674-.126-.845 0-1 .244-.12.72-.04 1 0 1.074-.04 1.797-.04 2 0V1" id="b"/><filter x="-22.2%" y="-5.9%" width="144.4%" height="123.5%" filterUnits="objectBoundingBox" id="a"><feOffset dy="1" in="SourceAlpha" result="shadowOffsetOuter1"/><feGaussianBlur stdDeviation=".5" in="shadowOffsetOuter1" result="shadowBlurOuter1"/><feColorMatrix values="0 0 0 0 0.109309187 0 0 0 0 0.214435856 0 0 0 0 0.44921875 0 0 0 0.603091033 0" in="shadowBlurOuter1"/></filter></defs><g fill="none" fill-rule="evenodd"><rect fill="#39579A" width="36" height="36" rx="6"/><g transform="translate(14 8)"><use fill="#000" filter="url(#a)" xlink:href="#b"/><use fill="#FFF" xlink:href="#b"/></g></g></svg>