<svg width="36" height="36" xmlns="http://www.w3.org/2000/svg" xmlns:xlink="http://www.w3.org/1999/xlink"><defs><path d="M19.61 8.777s3.11-4.388 3.42-5.83c.102-.514-.124-.803-.66-.803h-2.698c-.618 0-.845.268-1.03.66 0 0-1.46 3.108-3.234 5.067-.57.633-.86.824-1.174.824-.254 0-.371-.212-.371-.783V2.906c0-.7-.082-.906-.66-.906H8.879c-.33 0-.536.192-.536.453 0 .66 1.01.809 1.01 2.596v3.687c0 .741-.041 1.03-.392 1.03-.926 0-3.13-3.193-4.366-6.818C4.346 2.206 4.079 2 3.378 2H.68C.288 2 0 2.268 0 2.659c0 .721.845 4.058 4.161 8.528 2.225 3.007 5.15 4.635 7.786 4.635 1.607 0 1.998-.268 1.998-.948v-2.307c0-.577.227-.824.556-.824.371 0 1.026.12 2.555 1.627 1.812 1.73 1.936 2.452 2.925 2.452h3.028c.309 0 .597-.145.597-.66 0-.68-.886-1.895-2.245-3.337-.556-.741-1.463-1.544-1.751-1.915-.412-.433-.288-.68 0-1.133" id="b"/><filter x="-8.5%" y="-7.2%" width="116.9%" height="128.9%" filterUnits="objectBoundingBox" id="a"><feOffset dy="1" in="SourceAlpha" result="shadowOffsetOuter1"/><feGaussianBlur stdDeviation=".5" in="shadowOffsetOuter1" result="shadowBlurOuter1"/><feColorMatrix values="0 0 0 0 0.133333333 0 0 0 0 0.254901961 0 0 0 0 0.384313725 0 0 0 0.6 0" in="shadowBlurOuter1"/></filter></defs><g fill="none" fill-rule="evenodd"><rect fill="#4D6D8F" width="36" height="36" rx="6"/><path d="M6 9h24v18H6z"/><g transform="translate(6 9)"><use fill="#000" filter="url(#a)" xlink:href="#b"/><use fill="#FFF" xlink:href="#b"/></g></g></svg>