<?xml version="1.0" encoding="UTF-8" standalone="no"?>
<svg width="12px" height="12px" viewBox="0 0 12 12" version="1.1" xmlns="http://www.w3.org/2000/svg" xmlns:xlink="http://www.w3.org/1999/xlink">
    <!-- Generator: Sketch 48.2 (47327) - http://www.bohemiancoding.com/sketch -->
    <title>Icn Special / Plus / 4 Green</title>
    <desc>Created with Sketch.</desc>
    <defs></defs>
    <g id="Dashboard-/-Choice-of-Sites-/-Table" stroke="none" stroke-width="1" fill="none" fill-rule="evenodd" transform="translate(-578.000000, -24.000000)">
        <g id="top-bar">
            <g id="button-create-new" transform="translate(566.000000, 12.000000)">
                <g id="Icn-Special-/-Plus-/-4-Green" transform="translate(10.000000, 10.000000)">
                    <rect id="icon-grid" opacity="0.601096082" x="0" y="5.68434189e-14" width="16" height="16"></rect>
                    <path d="M9,7 L12.9975267,7 C13.544239,7 14,7.44771525 14,8 C14,8.55613518 13.5511774,9 12.9975267,9 L9,9 L9,12.9975267 C9,13.544239 8.55228475,14 8,14 C7.44386482,14 7,13.5511774 7,12.9975267 L7,9 L3.00247329,9 C2.45576096,9 2,8.55228475 2,8 C2,7.44386482 2.44882258,7 3.00247329,7 L7,7 L7,3.00247329 C7,2.45576096 7.44771525,2 8,2 C8.55613518,2 9,2.44882258 9,3.00247329 L9,7 Z" id="shape" fill="#4CAF50" fill-rule="evenodd"></path>
                </g>
            </g>
        </g>
    </g>
</svg>