<svg width="30" height="30" xmlns="http://www.w3.org/2000/svg"><g fill="none" fill-rule="evenodd"><path d="M0 0h30v30H0z"/><path d="M14.002 20.973v.054c0 .539.448.973 1 .973s1-.434 1-.973v-.054a.987.987 0 0 0-1-.974c-.552 0-1 .436-1 .974zm0-9.1v6.296c0 .392.448.83 1 .83s1-.438 1-.83v-6.297c0-.39-.448-.889-1-.889s-1 .499-1 .89zm9.743 12.118H6.205a1.02 1.02 0 0 1-.915-.575 1.155 1.155 0 0 1 .037-1.132l8.79-14.811c.392-.648 1.365-.648 1.758 0l8.748 14.81c.21.347.223.77.036 1.133a1.019 1.019 0 0 1-.914.575zm-6.591-18.28c-.473-.77-1.277-1.228-2.154-1.228s-1.681.459-2.153 1.229L3.348 21.89a2.728 2.728 0 0 0-.09 2.72C3.716 25.483 4.554 26 5.503 26h18.934c.949 0 1.787-.517 2.243-1.387a2.73 2.73 0 0 0-.091-2.722l-9.434-16.18z" fill="#FFF" fill-rule="nonzero"/></g></svg>