<?xml version="1.0" encoding="UTF-8" standalone="no"?>
<svg width="25px" height="18px" viewBox="0 0 25 18" version="1.1" xmlns="http://www.w3.org/2000/svg" xmlns:xlink="http://www.w3.org/1999/xlink">
    <!-- Generator: Sketch 48.2 (47327) - http://www.bohemiancoding.com/sketch -->
    <title>icn-check</title>
    <desc>Created with Sketch.</desc>
    <defs></defs>
    <g id="icn-big-check" stroke="none" stroke-width="1" fill="none" fill-rule="evenodd" transform="translate(-4.000000, -7.000000)">
        <g id="icn-check" fill="#FFFFFF">
            <path d="M8.30437861,13.9241748 L8.30437861,13.9241748 C8.99473454,13.9241748 9.55437861,14.4838188 9.55437861,15.1741748 L9.55437861,24.6845824 L7.05437861,24.6845824 L7.05437861,15.1741748 C7.05437861,14.4838188 7.61402267,13.9241748 8.30437861,13.9241748 Z" id="Rectangle-3" transform="translate(8.304379, 19.304379) rotate(-45.000000) translate(-8.304379, -19.304379) "></path>
            <path d="M19.6734127,4.47779131 L19.6734127,4.47779131 C20.3637686,4.47779131 20.9234127,5.03743537 20.9234127,5.72779131 L20.9234127,25.6753833 C20.9234127,26.7799528 20.0279822,27.6753833 18.9234127,27.6753833 L18.4234127,27.6753833 L18.4234127,5.72779131 C18.4234127,5.03743537 18.9830568,4.47779131 19.6734127,4.47779131 Z" id="Rectangle-3" transform="translate(19.673413, 16.076587) rotate(45.000000) translate(-19.673413, -16.076587) "></path>
        </g>
    </g>
</svg>