<svg width="30" height="30" xmlns="http://www.w3.org/2000/svg" xmlns:xlink="http://www.w3.org/1999/xlink"><defs><path d="M3 6.994A2.994 2.994 0 0 1 5.991 4H24.01A2.994 2.994 0 0 1 27 6.994v14.012A2.994 2.994 0 0 1 24.009 24H5.99A2.994 2.994 0 0 1 3 21.006V6.994zm2 1v12.012C5 21.106 5.891 22 6.99 22h16.02c1.092 0 1.99-.893 1.99-1.994V7.994C25 6.894 24.109 6 23.01 6H6.99C5.899 6 5 6.893 5 7.994zM13 18l4-7 5 9H8l3-5 2 3zm-3-6a2 2 0 1 1 0-4 2 2 0 0 1 0 4z" id="a"/></defs><use fill="#8DA8B8" xlink:href="#a" fill-rule="evenodd"/></svg>