<svg width="18" height="18" xmlns="http://www.w3.org/2000/svg"><g fill="none" fill-rule="evenodd"><path opacity=".601" d="M0 0h16v16H0z"/><path d="M9 17A8 8 0 1 1 9 1a8 8 0 0 1 0 16zM9 3a6 6 0 1 0 0 12A6 6 0 0 0 9 3zm2.94 9.607l-.176.102-.508.309-.299.219c-.223.106-.455.19-.696.261v-.294l-.085-.679s-.042-.391-.106-.494a.88.88 0 0 0-.36-.309c-.148-.062-.254-.062-.339-.165-.085-.103-.148-.288-.254-.453-.106-.165-.233-.33-.233-.412v-.927l.106-.782.233-.165.275-.309.192-.062.656.123h.466l.191.391.444.35.275.432.36.123h.402l.275.329.169.35.064.247v.412l-.044.243c-.268.443-.608.83-1.008 1.16zm-1.636-7.105l-.466.247-.169.474-.276.247h-.91l-.424.165-.021.329-.169.268-.043.288.085.247.106.247s.254.288 0 .494c0 0-.318 0-.381-.103-.064-.102-.53-.391-.614-.473-.085-.082-.36-.165-.36-.165l-.339-.123-.318-.021.021-.432-.021-.371-.127-.268-.36-.268-.021-.288.044-.16a4.794 4.794 0 0 1 3.344-1.343c.736 0 1.425.177 2.047.468l-.014.109-.614.432z" fill="#4CAF50"/></g></svg>