<svg width="18" height="18" xmlns="http://www.w3.org/2000/svg" xmlns:xlink="http://www.w3.org/1999/xlink"><defs><path d="M16.896 5.443l-1.772 5.848a1 1 0 0 1-.977.707 1.016 1.016 0 0 1-.057.002H6.61l-.054-.001a1 1 0 0 1-.968-.708L3.358 4H2a1 1 0 1 1 0-2h2.047c.056 0 .112.005.166.014a1 1 0 0 1 .844.701L7.284 10h6.143l1.223-4H9a1 1 0 1 1 0-2h7c.552 0 1 .276 1 .828 0 .122-.042.412-.104.615zM6.927 14a1.5 1.5 0 1 1 0 3 1.5 1.5 0 0 1 0-3zm6.573 0a1.5 1.5 0 1 1 0 3 1.5 1.5 0 0 1 0-3z" id="a"/></defs><g fill="none" fill-rule="evenodd"><path opacity=".601" d="M0 0h18v18H0z"/><use fill="#4CAF50" xlink:href="#a"/></g></svg>