<?xml version="1.0" encoding="UTF-8" standalone="no"?>
<svg width="30px" height="30px" viewBox="0 0 30 30" version="1.1" xmlns="http://www.w3.org/2000/svg" xmlns:xlink="http://www.w3.org/1999/xlink">
    <!-- Generator: Sketch 49 (51002) - http://www.bohemiancoding.com/sketch -->
    <title>icn-big-pen-and-tape</title>
    <desc>Created with Sketch.</desc>
    <defs></defs>
    <g id="icn-big-pen-and-tape" stroke="none" stroke-width="1" fill="none" fill-rule="evenodd">
        <path d="M27.7130045,21.6348548 L24.5201794,18.4343015 C24.5201794,18.4343015 23.1689088,17.0797603 20.4663677,14.3706777 L27.6412556,7.17842324 C27.9641256,6.85477178 27.9641256,6.35131397 27.6412556,6.02766252 L23.8744395,2.28769018 C23.7309417,2.14384509 23.5156951,2.03596127 23.3004484,2.03596127 C23.0852018,2.03596127 22.8699552,2.10788382 22.7264574,2.28769018 L15.5515695,9.47994467 L15.0852018,9.01244813 C15.0852018,9.01244813 14.4633782,8.36514523 13.2197309,7.07053942 C13.2197309,7.07053942 11.593423,5.45228216 8.34080717,2.21576763 C8.05381166,1.92807746 7.47982063,1.92807746 7.19282511,2.21576763 L2.24215247,7.17842324 C1.91928251,7.50207469 1.91928251,8.0055325 2.24215247,8.32918396 L9.48878924,15.593361 L3.89237668,21.2033195 C3.85650224,21.2392808 3.8206278,21.3112033 3.78475336,21.3471646 C3.71300448,21.4190871 3.71300448,21.4910097 3.67713004,21.526971 C3.67713004,21.526971 3.13901345,23.3130475 2.06278027,26.8852006 C1.99103139,27.1728907 2.06278027,27.4965422 2.27802691,27.7123098 C2.42152466,27.8561549 2.6367713,27.9640387 2.85201794,27.9640387 C2.92376682,27.9640387 2.9955157,27.9640387 3.10313901,27.9280775 L8.44843049,26.3098202 C8.52017937,26.3098202 8.59192825,26.2738589 8.62780269,26.2378976 C8.69955157,26.1659751 8.77130045,26.1300138 8.80717489,26.0940526 L14.4035874,20.4840941 L21.6502242,27.7482711 C21.793722,27.8921162 22.0089686,28 22.2242152,28 C22.4394619,28 22.6547085,27.9280775 22.7982063,27.7482711 L27.7488789,22.7856155 C27.8923767,22.6417704 28,22.4260028 28,22.2102351 C28,21.9944675 27.8565022,21.7786999 27.7130045,21.6348548 Z M25.9192825,6.60304288 L24.1952178,8.3983634 L21.6122582,5.80915179 L23.3363229,4.01383126 L25.9192825,6.60304288 Z M20.4347406,6.97743877 L23.0177002,9.56665039 L19.3183857,13.1839557 L18.8520179,12.7164592 C18.8520179,12.7164592 18.2301943,12.0931305 16.9865471,10.846473 C16.9865471,10.846473 16.8908819,10.7505763 16.6995516,10.5587828 L20.4347406,6.97743877 Z M5.56283675,25.558055 L4.43925108,24.375186 L5.31115302,22.0266029 L7.9295528,24.7161234 L5.56283675,25.558055 Z M7.89109644,24.6941002 L5.32105334,22.046875 L10.6367713,16.7441217 L13.2197309,19.3333333 L7.89109644,24.6941002 Z M22.1883408,26.02213 L11.2107623,15.0179806 C11.2107623,15.0179806 8.79521674,12.5965883 3.96412556,7.7538036 L7.76681614,3.94190871 L10.7443946,6.92669433 L9.23766816,8.43706777 C8.91479821,8.76071923 8.91479821,9.26417704 9.23766816,9.58782849 C9.38116592,9.73167358 9.59641256,9.8395574 9.81165919,9.8395574 C10.0269058,9.8395574 10.2421525,9.76763485 10.3856502,9.58782849 L11.8923767,8.07745505 L14.4753363,10.6666667 L12.9686099,12.1770401 C12.6457399,12.5006916 12.6457399,13.0041494 12.9686099,13.3278008 C13.1121076,13.4716459 13.3273543,13.5795297 13.5426009,13.5795297 C13.7578475,13.5795297 13.9730942,13.5076072 14.1165919,13.3278008 L15.6233184,11.8174274 L18.206278,14.406639 L16.6995516,15.9170124 C16.3766816,16.2406639 16.3766816,16.7441217 16.6995516,17.0677732 C16.8430493,17.2116183 17.058296,17.3195021 17.2735426,17.3195021 C17.4887892,17.3195021 17.7040359,17.2475795 17.8475336,17.0677732 L19.3542601,15.5573997 L21.9730942,18.1825726 L20.4663677,19.6929461 C20.1434978,20.0165975 20.1434978,20.5200553 20.4663677,20.8437068 C20.6098655,20.9875519 20.8251121,21.0954357 21.0403587,21.0954357 C21.2556054,21.0954357 21.470852,21.0235131 21.6143498,20.8437068 L23.1210762,19.3333333 L25.8834081,22.1023513 L22.1883408,26.02213 Z" id="Shape" fill="#FFFFFF" fill-rule="nonzero"></path>
    </g>
</svg>