<?xml version="1.0" encoding="UTF-8" standalone="no"?>
<svg width="18px" height="18px" viewBox="0 0 18 18" version="1.1" xmlns="http://www.w3.org/2000/svg" xmlns:xlink="http://www.w3.org/1999/xlink">
    <!-- Generator: Sketch 48.2 (47327) - http://www.bohemiancoding.com/sketch -->
    <title>icn / site-select / square-hat / green</title>
    <desc>Created with Sketch.</desc>
    <defs></defs>
    <g id="Symbols" stroke="none" stroke-width="1" fill="none" fill-rule="evenodd">
        <g id="icn-/-site-select-/-square-hat-/-green">
            <rect id="ico-placeholder" opacity="0.601096082" x="0" y="0" width="18" height="18"></rect>
            <path d="M14,9.5 L14,13 L10.3238096,14.8077092 C9.48900484,15.2182114 8.51099516,15.2182114 7.6761904,14.8077092 L4,13 L4,9.5 L1.78885438,8.39442719 C1.29487588,8.14743794 1.09465154,7.5467649 1.34164079,7.0527864 C1.43840449,6.859259 1.59532698,6.70233651 1.78885438,6.60557281 L8.5527864,3.2236068 C8.8343139,3.08284305 9.1656861,3.08284305 9.4472136,3.2236068 L16.2111456,6.60557281 C16.7051241,6.85256206 16.9053485,7.4532351 16.6583592,7.9472136 C16.5615955,8.140741 16.404673,8.29766349 16.2111456,8.39442719 L14,9.5 Z M12,10.5 L9.4472136,11.7763932 C9.1656861,11.9171569 8.8343139,11.9171569 8.5527864,11.7763932 L6.0673505,10.5336752 L6.0673505,12 L7.67899991,12.801619 C8.51202245,13.2159565 9.4901402,13.220354 10.3268546,12.8135234 L12,12 L12,10.5 Z M9.20306923,9.7986359 L13.471962,7.90135022 C13.7243041,7.78919818 13.8379506,7.4937173 13.7257985,7.24137521 C13.6755247,7.12825895 13.5850783,7.03781256 13.471962,6.98753867 L9.20306923,5.09025299 C9.07378656,5.03279402 8.92621344,5.03279402 8.79693077,5.09025299 L4.52803799,6.98753867 C4.2756959,7.09969071 4.16204941,7.39517159 4.27420145,7.64751368 C4.32447534,7.76062993 4.41492173,7.85107633 4.52803799,7.90135022 L8.79693077,9.7986359 C8.92621344,9.85609486 9.07378656,9.85609486 9.20306923,9.7986359 Z" id="Mask" fill="#4CAF50"></path>
        </g>
    </g>
</svg>